# xmcd
#
# Track frame offsets: 
#        150
#        32800
#        62557
#        77636
#        99856
#        142123
#        164996
#
# Disc length: 2571 seconds
#
# Revision: 0
# Processed by: cddbd v1.5.2PL0 Copyright (c) Steve Scherf et al.
# Submitted via: ExactAudioCopy v1.0b3
#
DISCID=5b0a0907
DTITLE=Geolino Extra - Wüsten
DYEAR=2012
DGENRE=Acid Punk
TTITLE0=Einleitung
TTITLE1=Las Vegas - Die vertrocknende Traumstadt
TTITLE2=Phämomene - Fata Morgana
TTITLE3=Wüstenpflanzen -  Grünes Wunder
TTITLE4=Der Wettlauf nach Timbuktu
TTITLE5=Kamele - Die Tapferkeit der Trampetiere
TTITLE6=Edelsteine - DIe Schatzsucher von Coober Pedy
EXTD=
EXTT0=
EXTT1=
EXTT2=
EXTT3=
EXTT4=
EXTT5=
EXTT6=
PLAYORDER=
